#!OML:ASF I:\Actors\actors\Patient Classification 1\Patient 1\Session 1\Subject1.ASF
:FULLY-SPECIFIED
:DEGREES
1031
root 0.458582 17.7355 8.28726 31.0777 3.18765 -9.42221
lowerback 24.3987 -0.793575 4.92959
upperback 0.719673 0.219773 -0.818709
thorax -12.8881 -0.242859 -3.84634
lowerneck -3.07658 -9.39314 -5.38331
upperneck -28.6088 -11.4461 10.561
head -7.29088 -5.99284 4.93019
rclavicle 1.03368e-014 -1.03368e-014
rhumerus 40.4604 42.664 -56.2324
rradius 33.6027
rwrist 24.3918
rhand 5.98418 -21.7273
rfingers 7.12502
rthumb 31.3082 -49.0696
lclavicle 1.03368e-014 -1.03368e-014
lhumerus 38.2976 -44.8213 53.4127
lradius 31.9574
lwrist -5.31275
lhand -22.9543 -25.4476
lfingers 7.12502
lthumb 3.48722 4.50362
rfemur -29.0027 27.9375 11.6668
rtibia -1.26749
rfoot -14.9555 -34.9778
rtoes 19.5246
lfemur -28.2865 46.9137 -26.0032
ltibia -8.45074
lfoot 23.4129 -30.493
ltoes 45.2236
1032
root 0.459216 17.7366 8.28292 31.0481 3.3168 -9.43826
lowerback 24.4833 -0.552137 5.02755
upperback 0.747086 0.585904 -0.666403
thorax -12.8653 -0.0753842 -3.8566
lowerneck -4.08232 -7.78701 -4.51061
upperneck -27.4903 -9.05912 10.4795
head -6.9868 -4.88599 4.60072
rclavicle 1.59028e-014 1.27222e-014
rhumerus 40.2001 42.2753 -55.5748
rradius 33.6288
rwrist 24.5392
rhand 5.8813 -21.5578
rfingers 7.12502
rthumb 31.2102 -48.919
lclavicle 1.59028e-014 1.27222e-014
lhumerus 39.1556 -45.4849 53.3615
lradius 31.7741
lwrist -5.4806
lhand -22.7656 -25.5838
lfingers 7.12502
lthumb 3.66945 4.36432
rfemur -28.9611 27.8143 11.745
rtibia -1.26191
rfoot -14.9365 -34.8489
rtoes 19.6904
lfemur -28.061 46.6426 -25.6453
ltibia -8.52396
lfoot 23.3143 -30.2443
ltoes 45.3551
1033
root 0.457332 17.7376 8.27967 31.0152 3.4891 -9.36539
lowerback 24.5393 -0.300289 5.02667
upperback 0.696773 0.941831 -0.49315
thorax -12.9208 0.0904841 -3.78302
lowerneck -4.31903 -5.98361 -3.09328
upperneck -26.9163 -6.48362 10.1026
head -7.03181 -3.71421 4.1467
rclavicle 2.38542e-015 2.78299e-014
rhumerus 39.6398 41.8708 -55.2172
rradius 33.5575
rwrist 24.703
rhand 5.89334 -21.4552
rfingers 7.12502
rthumb 31.2217 -48.8142
lclavicle 2.38542e-015 2.78299e-014
lhumerus 39.7476 -46.1938 53.64
lradius 31.6192
lwrist -5.86986
lhand -22.6683 -25.6809
lfingers 7.12502
lthumb 3.76346 4.26558
rfemur -28.8429 27.6254 11.8013
rtibia -1.29078
rfoot -15.0021 -34.732
rtoes 19.9128
lfemur -27.812 46.3052 -25.3105
ltibia -8.57454
lfoot 23.0965 -30.0829
ltoes 45.3202
1034
root 0.452882 17.7371 8.27785 30.9765 3.71295 -9.23328
lowerback 24.5573 -0.111115 4.90984
upperback 0.597554 1.18026 -0.345108
thorax -13.0279 0.206876 -3.63096
lowerneck -4.63454 -4.05395 -1.80096
upperneck -25.96 -3.66085 10.2453
head -6.88976 -2.43525 3.83909
rclavicle 7.95139e-015 -2.3059e-014
rhumerus 38.8156 41.4701 -55.3901
rradius 33.483
rwrist 24.8943
rhand 5.9609 -21.3865
rfingers 7.12502
rthumb 31.2861 -48.7331
lclavicle 7.95139e-015 -2.3059e-014
lhumerus 40.0514 -46.8293 54.0199
lradius 31.5258
lwrist -6.20773
lhand -22.4548 -25.7495
lfingers 7.12502
lthumb 3.96963 4.19328
rfemur -28.6491 27.3839 11.8724
rtibia -1.35501
rfoot -15.082 -34.6087
rtoes 20.1449
lfemur -27.6152 45.8658 -25.0756
ltibia -8.6273
lfoot 22.9364 -29.9073
ltoes 45.357
1035
root 0.448114 17.7351 8.27575 30.9351 3.99175 -9.12177
lowerback 24.5452 0.0232021 4.78505
upperback 0.580933 1.33756 -0.220912
thorax -13.0311 0.291087 -3.47162
lowerneck -5.63871 -2.14042 -0.987723
upperneck -24.4291 -0.772147 11.38
head -6.40079 -1.10025 3.90972
rclavicle 7.95139e-016 2.3059e-014
rhumerus 38.3385 41.1766 -55.2415
rradius 33.5911
rwrist 24.5595
rhand 5.9688 -21.5143
rfingers 7.12502
rthumb 31.2936 -48.8594
lclavicle 7.95139e-016 2.3059e-014
lhumerus 40.5828 -47.3408 54.0336
lradius 31.4968
lwrist -6.24161
lhand -22.3791 -25.7502
lfingers 7.12502
lthumb 4.04267 4.1912
rfemur -28.4228 27.1128 12.0015
rtibia -1.44187
rfoot -15.2492 -34.4357
rtoes 20.4298
lfemur -27.471 45.3706 -24.8468
ltibia -8.677
lfoot 22.8382 -29.7319
ltoes 45.3888
1036
root 0.443679 17.7313 8.27365 30.8714 4.25347 -9.07503
lowerback 24.5888 0.221328 4.79468
upperback 0.591379 1.61752 -0.0972502
thorax -13.0204 0.422985 -3.43372
lowerneck -6.48991 -0.486256 -0.0802581
upperneck -23.1646 1.71084 12.637
head -6.02258 0.0416323 4.05315
rclavicle -5.96354e-015 -2.38542e-015
rhumerus 38.1375 41.0237 -54.3518
rradius 33.8454
rwrist 23.5146
rhand 5.91745 -21.8925
rfingers 7.12502
rthumb 31.2447 -49.247
lclavicle -5.96354e-015 -2.38542e-015
lhumerus 41.2871 -47.9134 54.0336
lradius 31.5268
lwrist -6.2055
lhand -22.5329 -25.5913
lfingers 7.12502
lthumb 3.89417 4.35287
rfemur -28.1833 26.8966 12.1898
rtibia -1.52971
rfoot -15.5193 -34.2743
rtoes 20.6576
lfemur -27.2857 44.9371 -24.5196
ltibia -8.71848
lfoot 22.6154 -29.6684
ltoes 45.1476
1037
root 0.440576 17.7268 8.27049 30.8105 4.46537 -9.09674
lowerback 24.6653 0.495513 4.95733
upperback 0.573925 2.04515 0.0473798
thorax -13.0439 0.611054 -3.51237
lowerneck -6.94029 0.830164 0.862555
upperneck -22.2807 3.69754 13.8199
head -5.81747 0.93389 4.20585
rclavicle 3.97569e-015 -1.07344e-014
rhumerus 36.7378 39.6504 -55.3793
rradius 33.6356
rwrist 24.2761
rhand 6.11131 -21.5995
rfingers 7.12502
rthumb 31.4294 -48.9182
lclavicle 3.97569e-015 -1.07344e-014
lhumerus 41.9909 -48.5571 54.2967
lradius 31.5144
lwrist -6.23526
lhand -22.6639 -25.3745
lfingers 7.12502
lthumb 3.7677 4.57194
rfemur -28.0218 26.7461 12.3861
rtibia -1.58135
rfoot -15.6349 -34.1733
rtoes 20.6242
lfemur -27.1574 44.5656 -24.2049
ltibia -8.72839
lfoot 22.2206 -29.697
ltoes 44.7362
1038
root 0.439074 17.7231 8.26616 30.7818 4.63096 -9.15706
lowerback 24.6883 0.746889 5.10182
upperback 0.555793 2.44041 0.229737
thorax -13.0436 0.788024 -3.52446
lowerneck -7.23328 1.84927 1.61983
upperneck -21.5022 5.2831 15.2018
head -5.65956 1.63174 4.47723
rclavicle 3.97569e-016 6.75868e-015
rhumerus 35.9346 38.8403 -55.6178
rradius 33.53
rwrist 24.4688
rhand 6.22835 -21.4969
rfingers 7.12502
rthumb 31.5409 -48.7938
lclavicle 3.97569e-016 6.75868e-015
lhumerus 42.4826 -48.9902 54.8111
lradius 31.3944
lwrist -6.31371
lhand -22.7031 -25.2351
lfingers 7.12502
lthumb 3.7298 4.71196
rfemur -27.9608 26.6326 12.5452
rtibia -1.60184
rfoot -15.682 -34.0991
rtoes 20.5917
lfemur -27.0932 44.2398 -23.9346
ltibia -8.73488
lfoot 21.8657 -29.6432
ltoes 44.4966
1039
root 0.438582 17.72 8.26263 30.7647 4.73533 -9.26024
lowerback 24.684 0.940223 5.18581
upperback 0.540116 2.74373 0.428828
thorax -13.0381 0.928208 -3.44985
lowerneck -7.44752 2.54625 2.22754
upperneck -20.7468 6.40668 16.6911
head -5.5034 2.11122 4.82848
rclavicle -1.98785e-015 1.51076e-014
rhumerus 35.5248 38.4571 -55.5201
rradius 33.5127
rwrist 24.4742
rhand 6.16761 -21.5984
rfingers 7.12502
rthumb 31.483 -48.9066
lclavicle -1.98785e-015 1.51076e-014
lhumerus 42.6352 -49.1739 55.4594
lradius 31.2673
lwrist -6.34427
lhand -22.6043 -25.1649
lfingers 7.12502
lthumb 3.82521 4.78049
rfemur -27.9323 26.5903 12.6974
rtibia -1.61903
rfoot -15.745 -34.0414
rtoes 20.4906
lfemur -27.0127 43.9786 -23.6694
ltibia -8.80459
lfoot 21.6775 -29.4473
ltoes 44.5211
1040
root 0.439351 17.718 8.25985 30.7485 4.75237 -9.3255
lowerback 24.6833 1.10058 5.2292
upperback 0.548943 2.98698 0.594285
thorax -13.0126 1.04349 -3.36917
lowerneck -7.44338 2.98197 2.67272
upperneck -20.2686 7.18041 18.0278
head -5.45263 2.41555 5.17196
rclavicle 1.94809e-014 -2.42517e-014
rhumerus 35.2651 38.2721 -55.3455
rradius 33.4478
rwrist 25.0559
rhand 5.54606 -21.7123
rfingers 7.12502
rthumb 30.8907 -49.1346
lclavicle 1.94809e-014 -2.42517e-014
lhumerus 42.5902 -49.236 56.0682
lradius 31.2322
lwrist -6.25937
lhand -22.5405 -25.0863
lfingers 7.12502
lthumb 3.88681 4.85804
rfemur -27.9118 26.6009 12.7661
rtibia -1.63508
rfoot -15.7961 -33.9947
rtoes 20.4772
lfemur -26.9038 43.7357 -23.5375
ltibia -8.98131
lfoot 21.5846 -29.1568
ltoes 44.6012
